# Blender 5.2.2 LTS
# www.blender.org
mtllib capsule02.mtl
o Capsule02
v -0.000000 0.984689 1.171445
v -0.000000 0.472267 -0.588969
v -0.000000 0.249405 -1.178489
v 0.000000 0.119108 -1.545219
v 0.000000 -0.002338 -1.884966
v 0.473408 1.133201 2.274409
v 0.380194 0.909064 1.171445
v 0.276002 0.658183 0.204586
v 0.183675 0.435731 -0.588969
v 0.098191 0.229874 -1.178489
v 0.048810 0.109399 -1.545219
v 0.874744 0.865037 2.274409
v 0.702506 0.693701 1.171445
v 0.509985 0.501840 0.204586
v 0.339386 0.331688 -0.588969
v 0.181434 0.174253 -1.178489
v 0.090189 0.081751 -1.545219
v 1.142909 0.463701 2.274408
v 0.917869 0.371389 1.171445
v 0.666327 0.267857 0.204586
v 0.443430 0.175976 -0.588969
v 0.237055 0.091010 -1.178489
v 0.117837 0.040372 -1.545219
v 1.237075 -0.009708 2.274408
v 0.993494 -0.008805 1.171444
v 0.721228 -0.008145 0.204586
v 0.479965 -0.007698 -0.588969
v 0.256586 -0.007181 -1.178489
v 0.127546 -0.008438 -1.545219
v 1.142908 -0.483116 2.274408
v 0.917868 -0.388999 1.171444
v 0.666327 -0.284147 0.204585
v 0.443429 -0.191373 -0.588969
v 0.237054 -0.105372 -1.178489
v 0.117837 -0.057248 -1.545219
v 0.874744 -0.884452 2.274408
v 0.702506 -0.711311 1.171444
v 0.509985 -0.518130 0.204585
v 0.339386 -0.347084 -0.588969
v 0.181434 -0.188615 -1.178489
v 0.090189 -0.098627 -1.545219
v 0.473408 -1.152616 2.274408
v 0.380193 -0.926674 1.171444
v 0.276002 -0.674472 0.204585
v 0.183674 -0.451128 -0.588969
v 0.098191 -0.244235 -1.178489
v 0.048810 -0.126275 -1.545219
v -0.000000 -1.246783 2.274408
v -0.000000 -1.002299 1.171444
v -0.000000 -0.729372 0.204585
v -0.000000 -0.487663 -0.588969
v -0.000000 -0.263767 -1.178489
v -0.000000 -0.135984 -1.545219
v -0.473408 -1.141297 2.283247
v -0.380194 -0.926673 1.171444
v -0.276002 -0.666724 0.210636
v -0.183675 -0.444401 -0.583716
v -0.098191 -0.238690 -1.174158
v -0.048810 -0.117862 -1.538649
v -0.874744 -0.873132 2.283247
v -0.702506 -0.701921 1.178777
v -0.509985 -0.510382 0.210636
v -0.339386 -0.340357 -0.583716
v -0.181434 -0.183069 -1.174158
v -0.090189 -0.090214 -1.538649
v -1.142909 -0.471796 2.283248
v -0.917869 -0.379608 1.178777
v -0.666327 -0.276399 0.210636
v -0.443430 -0.184645 -0.583716
v -0.237055 -0.099827 -1.174158
v -0.117837 -0.048835 -1.538649
v -1.237075 0.001612 2.283248
v -0.993494 0.000586 1.178777
v -0.721227 -0.000397 0.210636
v -0.479965 -0.000971 -0.583716
v -0.256586 -0.001636 -1.174158
v -0.127546 -0.008438 -1.545219
v -1.142908 0.475020 2.283248
v -0.917868 0.380779 1.178777
v -0.666327 0.275605 0.210636
v -0.443429 0.182704 -0.583716
v -0.237054 0.096556 -1.174158
v -0.117837 0.048785 -1.538649
v -0.874744 0.876356 2.283248
v -0.702506 0.703092 1.178777
v -0.509985 0.509588 0.210636
v -0.339386 0.338415 -0.583716
v -0.181434 0.179798 -1.174158
v -0.090189 0.090164 -1.538649
v -0.473408 1.144520 2.283248
v -0.380193 0.918454 1.178778
v -0.276001 0.665930 0.210636
v -0.183674 0.442459 -0.583716
v -0.098191 0.235419 -1.174158
v -0.048810 0.117812 -1.538649
v 0.000001 1.227368 2.274409
v 0.000000 0.713083 0.204586
vn 0.0095 0.9703 -0.2416
vn 0.0125 0.9473 -0.3202
vn 0.0226 0.9392 -0.3426
vn 0.0453 0.9415 -0.3339
vn -0.0047 0.0121 -0.9999
vn 0.3425 0.8195 0.4594
vn 0.3713 0.8965 -0.2416
vn 0.3674 0.8869 -0.2800
vn 0.3625 0.8752 -0.3204
vn 0.3591 0.8673 -0.3446
vn 0.3609 0.8699 -0.3361
vn 0.6298 0.6267 0.4590
vn 0.6861 0.6861 -0.2418
vn 0.6788 0.6788 -0.2801
vn 0.6698 0.6698 -0.3206
vn 0.6637 0.6640 -0.3444
vn 0.6663 0.6650 -0.3373
vn 0.8215 0.3389 0.4586
vn 0.8964 0.3713 -0.2420
vn 0.8868 0.3674 -0.2803
vn 0.8751 0.3625 -0.3208
vn 0.8674 0.3596 -0.3441
vn 0.8696 0.3589 -0.3391
vn 0.8888 -0.0001 0.4583
vn 0.9702 -0.0000 -0.2423
vn 0.9598 -0.0000 -0.2805
vn 0.9471 -0.0000 -0.3210
vn 0.9391 0.0003 -0.3437
vn 0.9400 -0.0013 -0.3412
vn 0.8215 -0.3392 0.4583
vn 0.8963 -0.3712 -0.2425
vn 0.8867 -0.3673 -0.2807
vn 0.8749 -0.3624 -0.3212
vn 0.8678 -0.3592 -0.3433
vn 0.8673 -0.3606 -0.3433
vn 0.6298 -0.6270 0.4584
vn 0.6860 -0.6859 -0.2428
vn 0.6786 -0.6786 -0.2809
vn 0.6696 -0.6696 -0.3214
vn 0.6643 -0.6641 -0.3430
vn 0.6630 -0.6644 -0.3450
vn 0.3425 -0.8199 0.4587
vn 0.3712 -0.8962 -0.2429
vn 0.3673 -0.8866 -0.2810
vn 0.3624 -0.8748 -0.3215
vn 0.3596 -0.8679 -0.3428
vn 0.3586 -0.8670 -0.3461
vn -0.0043 -0.8901 0.4557
vn -0.0070 -0.9700 -0.2429
vn -0.0119 -0.9591 -0.2827
vn -0.0212 -0.9464 -0.3224
vn -0.0388 -0.9376 -0.3457
vn -0.0738 -0.9344 -0.3485
vn -0.3471 -0.8131 0.4674
vn -0.3829 -0.8916 -0.2418
vn -0.3818 -0.8802 -0.2820
vn -0.3822 -0.8673 -0.3189
vn -0.3949 -0.8527 -0.3421
vn -0.4276 -0.8396 -0.3350
vn -0.6291 -0.6254 0.4616
vn -0.6905 -0.6820 -0.2410
vn -0.6813 -0.6760 -0.2807
vn -0.6699 -0.6699 -0.3201
vn -0.6635 -0.6638 -0.3452
vn -0.6656 -0.6649 -0.3389
vn -0.8195 -0.3405 0.4609
vn -0.8965 -0.3714 -0.2416
vn -0.8869 -0.3674 -0.2799
vn -0.8752 -0.3625 -0.3203
vn -0.8653 -0.3653 -0.3433
vn -0.8592 -0.3849 -0.3370
vn -0.8875 0.0001 0.4609
vn -0.9703 -0.0000 -0.2420
vn -0.9599 -0.0000 -0.2802
vn -0.9472 -0.0000 -0.3206
vn -0.9391 -0.0040 -0.3435
vn -0.9393 -0.0282 -0.3419
vn -0.8196 0.3408 0.4606
vn -0.8964 0.3713 -0.2423
vn -0.8868 0.3673 -0.2805
vn -0.8750 0.3624 -0.3209
vn -0.8674 0.3599 -0.3436
vn -0.8674 0.3640 -0.3392
vn -0.6262 0.6293 0.4602
vn -0.6860 0.6860 -0.2426
vn -0.6787 0.6786 -0.2808
vn -0.6696 0.6697 -0.3212
vn -0.6643 0.6639 -0.3434
vn -0.6647 0.6654 -0.3398
vn -0.3304 0.8243 0.4596
vn -0.3625 0.8998 -0.2427
vn -0.3578 0.8905 -0.2811
vn -0.3509 0.8795 -0.3215
vn -0.3389 0.8753 -0.3451
vn -0.3198 0.8840 -0.3410
vn 0.0105 0.8879 0.4599
vn 0.0103 0.9600 -0.2797
vt 0.750000 0.820964
vt 0.750000 1.000000
vt 0.687500 1.000000
vt 0.687500 0.820964
vt 0.750000 0.649950
vt 0.687500 0.649951
vt 0.750000 0.449483
vt 0.687500 0.449483
vt 0.750000 0.249016
vt 0.687500 0.249016
vt 0.750000 0.102805
vt 0.687500 0.102805
vt 0.718750 0.000000
vt 0.656250 0.000000
vt 0.625000 0.102805
vt 0.625000 1.000000
vt 0.625000 0.820964
vt 0.625000 0.649951
vt 0.625000 0.449483
vt 0.625000 0.249016
vt 0.562500 0.820964
vt 0.562500 0.649951
vt 0.562500 0.449483
vt 0.562500 0.249016
vt 0.562500 0.102805
vt 0.593750 0.000000
vt 0.562500 1.000000
vt 0.531250 0.000000
vt 0.500000 0.102805
vt 0.500000 1.000000
vt 0.500000 0.820964
vt 0.500000 0.649951
vt 0.500000 0.449483
vt 0.500000 0.249016
vt 0.437500 0.649951
vt 0.437500 0.449483
vt 0.437500 0.249016
vt 0.437500 0.102805
vt 0.468750 0.000000
vt 0.437500 1.000000
vt 0.437500 0.820964
vt 0.375000 1.000000
vt 0.375000 0.820964
vt 0.375000 0.649951
vt 0.375000 0.449483
vt 0.375000 0.249016
vt 0.375000 0.102805
vt 0.406250 0.000000
vt 0.312500 0.649951
vt 0.312500 0.449483
vt 0.312500 0.249016
vt 0.312500 0.102805
vt 0.343750 0.000000
vt 0.312500 1.000000
vt 0.312500 0.820964
vt 0.250000 1.000000
vt 0.250000 0.820964
vt 0.250000 0.649951
vt 0.250000 0.449483
vt 0.250000 0.249016
vt 0.250000 0.102805
vt 0.281250 0.000000
vt 0.187500 0.449483
vt 0.187500 0.249016
vt 0.187500 0.102805
vt 0.218750 0.000000
vt 0.187500 1.000000
vt 0.187500 0.820964
vt 0.187500 0.649951
vt 0.125000 1.000000
vt 0.125000 0.820964
vt 0.125000 0.649951
vt 0.125000 0.449483
vt 0.125000 0.249016
vt 0.125000 0.102805
vt 0.156250 0.000000
vt 0.062500 0.249016
vt 0.062500 0.102805
vt 0.093750 0.000000
vt 0.062500 1.000000
vt 0.062500 0.820964
vt 0.062500 0.649951
vt 0.062500 0.449483
vt 0.000000 1.000000
vt 0.000000 0.820964
vt 0.000000 0.649950
vt 0.000000 0.449483
vt 0.000000 0.249016
vt 0.000000 0.102805
vt 0.031250 0.000000
vt 1.000000 0.102805
vt 1.000000 0.249016
vt 0.937500 0.249016
vt 0.937500 0.102805
vt 0.968750 0.000000
vt 1.000000 0.820964
vt 1.000000 1.000000
vt 0.937500 1.000000
vt 0.937500 0.820964
vt 1.000000 0.649950
vt 0.937500 0.649950
vt 1.000000 0.449483
vt 0.937500 0.449483
vt 0.875000 0.820964
vt 0.875000 0.649950
vt 0.875000 0.449483
vt 0.875000 0.249016
vt 0.875000 0.102805
vt 0.906250 0.000000
vt 0.875000 1.000000
vt 0.843750 0.000000
vt 0.812500 0.102805
vt 0.812500 1.000000
vt 0.812500 0.820964
vt 0.812500 0.649950
vt 0.812500 0.449483
vt 0.812500 0.249016
vt 0.781250 0.000000
s 1
f 1/1/1 96/2/96 6/3/6 7/4/7
f 97/5/97 1/1/1 7/4/7 8/6/8
f 2/7/2 97/5/97 8/6/8 9/8/9
f 3/9/3 2/7/2 9/8/9 10/10/10
f 4/11/4 3/9/3 10/10/10 11/12/11
f 5/13/5 4/11/4 11/12/11
f 5/14/5 11/12/11 17/15/17
f 7/4/7 6/3/6 12/16/12 13/17/13
f 8/6/8 7/4/7 13/17/13 14/18/14
f 9/8/9 8/6/8 14/18/14 15/19/15
f 10/10/10 9/8/9 15/19/15 16/20/16
f 11/12/11 10/10/10 16/20/16 17/15/17
f 14/18/14 13/17/13 19/21/19 20/22/20
f 15/19/15 14/18/14 20/22/20 21/23/21
f 16/20/16 15/19/15 21/23/21 22/24/22
f 17/15/17 16/20/16 22/24/22 23/25/23
f 5/26/5 17/15/17 23/25/23
f 13/17/13 12/16/12 18/27/18 19/21/19
f 5/28/5 23/25/23 29/29/29
f 19/21/19 18/27/18 24/30/24 25/31/25
f 20/22/20 19/21/19 25/31/25 26/32/26
f 21/23/21 20/22/20 26/32/26 27/33/27
f 22/24/22 21/23/21 27/33/27 28/34/28
f 23/25/23 22/24/22 28/34/28 29/29/29
f 27/33/27 26/32/26 32/35/32 33/36/33
f 28/34/28 27/33/27 33/36/33 34/37/34
f 29/29/29 28/34/28 34/37/34 35/38/35
f 5/39/5 29/29/29 35/38/35
f 25/31/25 24/30/24 30/40/30 31/41/31
f 26/32/26 25/31/25 31/41/31 32/35/32
f 31/41/31 30/40/30 36/42/36 37/43/37
f 32/35/32 31/41/31 37/43/37 38/44/38
f 33/36/33 32/35/32 38/44/38 39/45/39
f 34/37/34 33/36/33 39/45/39 40/46/40
f 35/38/35 34/37/34 40/46/40 41/47/41
f 5/48/5 35/38/35 41/47/41
f 39/45/39 38/44/38 44/49/44 45/50/45
f 40/46/40 39/45/39 45/50/45 46/51/46
f 41/47/41 40/46/40 46/51/46 47/52/47
f 5/53/5 41/47/41 47/52/47
f 37/43/37 36/42/36 42/54/42 43/55/43
f 38/44/38 37/43/37 43/55/43 44/49/44
f 43/55/43 42/54/42 48/56/48 49/57/49
f 44/49/44 43/55/43 49/57/49 50/58/50
f 45/50/45 44/49/44 50/58/50 51/59/51
f 46/51/46 45/50/45 51/59/51 52/60/52
f 47/52/47 46/51/46 52/60/52 53/61/53
f 5/62/5 47/52/47 53/61/53
f 52/60/52 51/59/51 57/63/57 58/64/58
f 53/61/53 52/60/52 58/64/58 59/65/59
f 5/66/5 53/61/53 59/65/59
f 49/57/49 48/56/48 54/67/54 55/68/55
f 50/58/50 49/57/49 55/68/55 56/69/56
f 51/59/51 50/58/50 56/69/56 57/63/57
f 55/68/55 54/67/54 60/70/60 61/71/61
f 56/69/56 55/68/55 61/71/61 62/72/62
f 57/63/57 56/69/56 62/72/62 63/73/63
f 58/64/58 57/63/57 63/73/63 64/74/64
f 59/65/59 58/64/58 64/74/64 65/75/65
f 5/76/5 59/65/59 65/75/65
f 65/75/65 64/74/64 70/77/70 71/78/71
f 5/79/5 65/75/65 71/78/71
f 61/71/61 60/70/60 66/80/66 67/81/67
f 62/72/62 61/71/61 67/81/67 68/82/68
f 63/73/63 62/72/62 68/82/68 69/83/69
f 64/74/64 63/73/63 69/83/69 70/77/70
f 67/81/67 66/80/66 72/84/72 73/85/73
f 68/82/68 67/81/67 73/85/73 74/86/74
f 69/83/69 68/82/68 74/86/74 75/87/75
f 70/77/70 69/83/69 75/87/75 76/88/76
f 71/78/71 70/77/70 76/88/76 77/89/77
f 5/90/5 71/78/71 77/89/77
f 77/91/77 76/92/76 82/93/82 83/94/83
f 5/95/5 77/91/77 83/94/83
f 73/96/73 72/97/72 78/98/78 79/99/79
f 74/100/74 73/96/73 79/99/79 80/101/80
f 75/102/75 74/100/74 80/101/80 81/103/81
f 76/92/76 75/102/75 81/103/81 82/93/82
f 80/101/80 79/99/79 85/104/85 86/105/86
f 81/103/81 80/101/80 86/105/86 87/106/87
f 82/93/82 81/103/81 87/106/87 88/107/88
f 83/94/83 82/93/82 88/107/88 89/108/89
f 5/109/5 83/94/83 89/108/89
f 79/99/79 78/98/78 84/110/84 85/104/85
f 5/111/5 89/108/89 95/112/95
f 85/104/85 84/110/84 90/113/90 91/114/91
f 86/105/86 85/104/85 91/114/91 92/115/92
f 87/106/87 86/105/86 92/115/92 93/116/93
f 88/107/88 87/106/87 93/116/93 94/117/94
f 89/108/89 88/107/88 94/117/94 95/112/95
f 92/115/92 91/114/91 1/1/1 97/5/97
f 93/116/93 92/115/92 97/5/97 2/7/2
f 94/117/94 93/116/93 2/7/2 3/9/3
f 95/112/95 94/117/94 3/9/3 4/11/4
f 5/118/5 95/112/95 4/11/4
f 91/114/91 90/113/90 96/2/96 1/1/1
f 6/3/6 96/2/96 90/113/90 84/110/84 78/98/78 72/97/72 66/80/66 60/70/60 54/67/54 48/56/48 42/54/42 36/42/36 30/40/30 24/30/24 18/27/18 12/16/12
