# Blender 5.2.2 LTS
# www.blender.org
mtllib Capsule01.mtl
o Capsule01
v 0.000000 0.885948 0.755224
v 0.000000 0.594692 -0.372454
v 0.000000 0.382701 -0.750160
v 0.000000 0.158597 -0.984828
v 0.000000 -0.008453 -1.035925
v 0.353553 0.845100 1.461861
v 0.342273 0.817865 0.755224
v 0.301146 0.718578 0.135852
v 0.230814 0.548780 -0.372454
v 0.149688 0.352926 -0.750160
v 0.064305 0.145806 -0.984828
v 0.653282 0.644828 1.461861
v 0.632437 0.623984 0.755224
v 0.556445 0.547992 0.135852
v 0.426488 0.418035 -0.372454
v 0.276588 0.268135 -0.750160
v 0.118820 0.109380 -0.984828
v 0.853553 0.345100 1.461861
v 0.826319 0.333819 0.755224
v 0.727031 0.292693 0.135852
v 0.557234 0.222360 -0.372454
v 0.361380 0.141235 -0.750160
v 0.155246 0.054865 -0.984828
v 0.923880 -0.008454 1.461861
v 0.894401 -0.008454 0.755224
v 0.786933 -0.008454 0.135852
v 0.603146 -0.008454 -0.372454
v 0.391155 -0.008453 -0.750160
v 0.168037 -0.009440 -0.984828
v 0.853553 -0.362007 1.461861
v 0.826319 -0.350726 0.755224
v 0.727031 -0.309600 0.135852
v 0.557234 -0.239267 -0.372454
v 0.361380 -0.158142 -0.750160
v 0.155246 -0.073745 -0.984828
v 0.653281 -0.661735 1.461861
v 0.632437 -0.640891 0.755224
v 0.556445 -0.564899 0.135852
v 0.426488 -0.434942 -0.372454
v 0.276588 -0.285042 -0.750160
v 0.118820 -0.128260 -0.984828
v 0.353553 -0.862007 1.461861
v 0.342272 -0.834772 0.755224
v 0.301146 -0.735485 0.135852
v 0.230814 -0.565687 -0.372454
v 0.149688 -0.369833 -0.750160
v 0.064305 -0.164686 -0.984828
v -0.000000 -0.932333 1.461861
v -0.000000 -0.902855 0.755224
v -0.000000 -0.795386 0.135852
v -0.000000 -0.611599 -0.372454
v -0.000000 -0.399608 -0.750160
v -0.000000 -0.177477 -0.984828
v -0.353554 -0.853553 1.466088
v -0.342273 -0.834772 0.755224
v -0.301146 -0.727031 0.140078
v -0.230814 -0.557234 -0.368228
v -0.149688 -0.361380 -0.745933
v -0.064305 -0.153602 -0.979286
v -0.653282 -0.653281 1.466088
v -0.632437 -0.632437 0.759451
v -0.556446 -0.556445 0.140078
v -0.426489 -0.426488 -0.368228
v -0.276588 -0.276588 -0.745933
v -0.118820 -0.117176 -0.979286
v -0.853553 -0.353553 1.466088
v -0.826319 -0.342272 0.759451
v -0.727031 -0.301146 0.140078
v -0.557234 -0.230814 -0.368228
v -0.361380 -0.149688 -0.745933
v -0.155246 -0.062661 -0.979286
v -0.923879 0.000000 1.466088
v -0.894401 0.000000 0.759451
v -0.786932 0.000000 0.140078
v -0.603146 0.000000 -0.368227
v -0.391155 0.000000 -0.745933
v -0.168037 -0.009440 -0.984828
v -0.853553 0.353554 1.466088
v -0.826319 0.342273 0.759451
v -0.727031 0.301146 0.140078
v -0.557234 0.230814 -0.368227
v -0.361380 0.149689 -0.745933
v -0.155246 0.065949 -0.979286
v -0.653281 0.653282 1.466088
v -0.632437 0.632437 0.759451
v -0.556445 0.556446 0.140078
v -0.426488 0.426489 -0.368227
v -0.276588 0.276588 -0.745933
v -0.118820 0.120464 -0.979286
v -0.353553 0.853553 1.466088
v -0.342272 0.826319 0.759451
v -0.301146 0.727031 0.140079
v -0.230814 0.557234 -0.368227
v -0.149688 0.361380 -0.745933
v -0.064305 0.156890 -0.979286
v 0.000000 0.915426 1.461861
v 0.000000 0.778479 0.135852
vn 0.0114 0.9943 -0.1058
vn 0.0127 0.9111 -0.4121
vn 0.0153 0.8092 -0.5874
vn 0.0027 0.5356 -0.8444
vn -0.0154 -0.0058 -0.9999
vn 0.2925 0.7015 0.6498
vn 0.3805 0.9187 -0.1057
vn 0.3702 0.8936 -0.2538
vn 0.3486 0.8417 -0.4123
vn 0.3097 0.7478 -0.5873
vn 0.2095 0.5054 -0.8371
vn 0.5386 0.5367 0.6495
vn 0.7031 0.7031 -0.1057
vn 0.6839 0.6839 -0.2538
vn 0.6442 0.6442 -0.4123
vn 0.5723 0.5724 -0.5871
vn 0.3870 0.3868 -0.8370
vn 0.7029 0.2903 0.6493
vn 0.9187 0.3805 -0.1057
vn 0.8936 0.3702 -0.2538
vn 0.8417 0.3486 -0.4123
vn 0.7480 0.3099 -0.5869
vn 0.5057 0.2092 -0.8369
vn 0.7606 -0.0000 0.6492
vn 0.9944 -0.0000 -0.1057
vn 0.9673 -0.0000 -0.2538
vn 0.9110 -0.0000 -0.4123
vn 0.8099 0.0001 -0.5866
vn 0.5474 -0.0003 -0.8368
vn 0.7029 -0.2903 0.6493
vn 0.9187 -0.3805 -0.1057
vn 0.8936 -0.3702 -0.2538
vn 0.8417 -0.3486 -0.4123
vn 0.7485 -0.3099 -0.5862
vn 0.5058 -0.2098 -0.8367
vn 0.5386 -0.5367 0.6495
vn 0.7031 -0.7031 -0.1057
vn 0.6839 -0.6839 -0.2538
vn 0.6442 -0.6442 -0.4123
vn 0.5730 -0.5729 -0.5860
vn 0.3872 -0.3874 -0.8367
vn 0.2925 -0.7015 0.6498
vn 0.3805 -0.9187 -0.1057
vn 0.3702 -0.8936 -0.2538
vn 0.3486 -0.8417 -0.4123
vn 0.3102 -0.7487 -0.5858
vn 0.2095 -0.5061 -0.8366
vn -0.0031 -0.7622 0.6473
vn -0.0063 -0.9943 -0.1061
vn -0.0115 -0.9665 -0.2563
vn -0.0199 -0.9102 -0.4138
vn -0.0336 -0.8074 -0.5891
vn -0.0547 -0.5494 -0.8338
vn -0.2954 -0.6937 0.6569
vn -0.3907 -0.9143 -0.1063
vn -0.3836 -0.8872 -0.2565
vn -0.3673 -0.8345 -0.4107
vn -0.3415 -0.7359 -0.5847
vn -0.2667 -0.4948 -0.8271
vn -0.5381 -0.5347 0.6516
vn -0.7069 -0.6993 -0.1056
vn -0.6858 -0.6815 -0.2552
vn -0.6442 -0.6442 -0.4123
vn -0.5716 -0.5718 -0.5886
vn -0.3973 -0.3960 -0.8279
vn -0.7009 -0.2911 0.6511
vn -0.9187 -0.3805 -0.1057
vn -0.8936 -0.3702 -0.2538
vn -0.8417 -0.3486 -0.4123
vn -0.7464 -0.3155 -0.5859
vn -0.5094 -0.2444 -0.8251
vn -0.7589 -0.0000 0.6512
vn -0.9944 -0.0000 -0.1057
vn -0.9673 -0.0000 -0.2538
vn -0.9110 -0.0000 -0.4123
vn -0.8102 -0.0024 -0.5862
vn -0.5426 -0.0173 -0.8398
vn -0.7009 0.2911 0.6511
vn -0.9187 0.3805 -0.1057
vn -0.8936 0.3702 -0.2538
vn -0.8417 0.3486 -0.4123
vn -0.7477 0.3118 -0.5862
vn -0.5111 0.2288 -0.8285
vn -0.5358 0.5378 0.6509
vn -0.7031 0.7031 -0.1057
vn -0.6839 0.6840 -0.2538
vn -0.6442 0.6442 -0.4123
vn -0.5727 0.5726 -0.5866
vn -0.3910 0.3922 -0.8326
vn -0.2817 0.7060 0.6497
vn -0.3700 0.9230 -0.1056
vn -0.3594 0.8980 -0.2538
vn -0.3369 0.8464 -0.4125
vn -0.2960 0.7541 -0.5862
vn -0.2094 0.5234 -0.8260
vn 0.0101 0.7590 0.6510
vn 0.0116 0.9672 -0.2538
vt 0.750000 0.820964
vt 0.750000 1.000000
vt 0.687500 1.000000
vt 0.687500 0.820964
vt 0.750000 0.649950
vt 0.687500 0.649951
vt 0.750000 0.449483
vt 0.687500 0.449483
vt 0.750000 0.249016
vt 0.687500 0.249016
vt 0.750000 0.102805
vt 0.687500 0.102805
vt 0.718750 0.000000
vt 0.656250 0.000000
vt 0.625000 0.102805
vt 0.625000 1.000000
vt 0.625000 0.820964
vt 0.625000 0.649951
vt 0.625000 0.449483
vt 0.625000 0.249016
vt 0.562500 0.820964
vt 0.562500 0.649951
vt 0.562500 0.449483
vt 0.562500 0.249016
vt 0.562500 0.102805
vt 0.593750 0.000000
vt 0.562500 1.000000
vt 0.531250 0.000000
vt 0.500000 0.102805
vt 0.500000 1.000000
vt 0.500000 0.820964
vt 0.500000 0.649951
vt 0.500000 0.449483
vt 0.500000 0.249016
vt 0.437500 0.649951
vt 0.437500 0.449483
vt 0.437500 0.249016
vt 0.437500 0.102805
vt 0.468750 0.000000
vt 0.437500 1.000000
vt 0.437500 0.820964
vt 0.375000 1.000000
vt 0.375000 0.820964
vt 0.375000 0.649951
vt 0.375000 0.449483
vt 0.375000 0.249016
vt 0.375000 0.102805
vt 0.406250 0.000000
vt 0.312500 0.649951
vt 0.312500 0.449483
vt 0.312500 0.249016
vt 0.312500 0.102805
vt 0.343750 0.000000
vt 0.312500 1.000000
vt 0.312500 0.820964
vt 0.250000 1.000000
vt 0.250000 0.820964
vt 0.250000 0.649951
vt 0.250000 0.449483
vt 0.250000 0.249016
vt 0.250000 0.102805
vt 0.281250 0.000000
vt 0.187500 0.449483
vt 0.187500 0.249016
vt 0.187500 0.102805
vt 0.218750 0.000000
vt 0.187500 1.000000
vt 0.187500 0.820964
vt 0.187500 0.649951
vt 0.125000 1.000000
vt 0.125000 0.820964
vt 0.125000 0.649951
vt 0.125000 0.449483
vt 0.125000 0.249016
vt 0.125000 0.102805
vt 0.156250 0.000000
vt 0.062500 0.249016
vt 0.062500 0.102805
vt 0.093750 0.000000
vt 0.062500 1.000000
vt 0.062500 0.820964
vt 0.062500 0.649951
vt 0.062500 0.449483
vt 0.000000 1.000000
vt 0.000000 0.820964
vt 0.000000 0.649950
vt 0.000000 0.449483
vt 0.000000 0.249016
vt 0.000000 0.102805
vt 0.031250 0.000000
vt 1.000000 0.102805
vt 1.000000 0.249016
vt 0.937500 0.249016
vt 0.937500 0.102805
vt 0.968750 0.000000
vt 1.000000 0.820964
vt 1.000000 1.000000
vt 0.937500 1.000000
vt 0.937500 0.820964
vt 1.000000 0.649950
vt 0.937500 0.649950
vt 1.000000 0.449483
vt 0.937500 0.449483
vt 0.875000 0.820964
vt 0.875000 0.649950
vt 0.875000 0.449483
vt 0.875000 0.249016
vt 0.875000 0.102805
vt 0.906250 0.000000
vt 0.875000 1.000000
vt 0.843750 0.000000
vt 0.812500 0.102805
vt 0.812500 1.000000
vt 0.812500 0.820964
vt 0.812500 0.649950
vt 0.812500 0.449483
vt 0.812500 0.249016
vt 0.781250 0.000000
s 1
f 1/1/1 96/2/96 6/3/6 7/4/7
f 97/5/97 1/1/1 7/4/7 8/6/8
f 2/7/2 97/5/97 8/6/8 9/8/9
f 3/9/3 2/7/2 9/8/9 10/10/10
f 4/11/4 3/9/3 10/10/10 11/12/11
f 5/13/5 4/11/4 11/12/11
f 5/14/5 11/12/11 17/15/17
f 7/4/7 6/3/6 12/16/12 13/17/13
f 8/6/8 7/4/7 13/17/13 14/18/14
f 9/8/9 8/6/8 14/18/14 15/19/15
f 10/10/10 9/8/9 15/19/15 16/20/16
f 11/12/11 10/10/10 16/20/16 17/15/17
f 14/18/14 13/17/13 19/21/19 20/22/20
f 15/19/15 14/18/14 20/22/20 21/23/21
f 16/20/16 15/19/15 21/23/21 22/24/22
f 17/15/17 16/20/16 22/24/22 23/25/23
f 5/26/5 17/15/17 23/25/23
f 13/17/13 12/16/12 18/27/18 19/21/19
f 5/28/5 23/25/23 29/29/29
f 19/21/19 18/27/18 24/30/24 25/31/25
f 20/22/20 19/21/19 25/31/25 26/32/26
f 21/23/21 20/22/20 26/32/26 27/33/27
f 22/24/22 21/23/21 27/33/27 28/34/28
f 23/25/23 22/24/22 28/34/28 29/29/29
f 27/33/27 26/32/26 32/35/32 33/36/33
f 28/34/28 27/33/27 33/36/33 34/37/34
f 29/29/29 28/34/28 34/37/34 35/38/35
f 5/39/5 29/29/29 35/38/35
f 25/31/25 24/30/24 30/40/30 31/41/31
f 26/32/26 25/31/25 31/41/31 32/35/32
f 31/41/31 30/40/30 36/42/36 37/43/37
f 32/35/32 31/41/31 37/43/37 38/44/38
f 33/36/33 32/35/32 38/44/38 39/45/39
f 34/37/34 33/36/33 39/45/39 40/46/40
f 35/38/35 34/37/34 40/46/40 41/47/41
f 5/48/5 35/38/35 41/47/41
f 39/45/39 38/44/38 44/49/44 45/50/45
f 40/46/40 39/45/39 45/50/45 46/51/46
f 41/47/41 40/46/40 46/51/46 47/52/47
f 5/53/5 41/47/41 47/52/47
f 37/43/37 36/42/36 42/54/42 43/55/43
f 38/44/38 37/43/37 43/55/43 44/49/44
f 43/55/43 42/54/42 48/56/48 49/57/49
f 44/49/44 43/55/43 49/57/49 50/58/50
f 45/50/45 44/49/44 50/58/50 51/59/51
f 46/51/46 45/50/45 51/59/51 52/60/52
f 47/52/47 46/51/46 52/60/52 53/61/53
f 5/62/5 47/52/47 53/61/53
f 52/60/52 51/59/51 57/63/57 58/64/58
f 53/61/53 52/60/52 58/64/58 59/65/59
f 5/66/5 53/61/53 59/65/59
f 49/57/49 48/56/48 54/67/54 55/68/55
f 50/58/50 49/57/49 55/68/55 56/69/56
f 51/59/51 50/58/50 56/69/56 57/63/57
f 55/68/55 54/67/54 60/70/60 61/71/61
f 56/69/56 55/68/55 61/71/61 62/72/62
f 57/63/57 56/69/56 62/72/62 63/73/63
f 58/64/58 57/63/57 63/73/63 64/74/64
f 59/65/59 58/64/58 64/74/64 65/75/65
f 5/76/5 59/65/59 65/75/65
f 65/75/65 64/74/64 70/77/70 71/78/71
f 5/79/5 65/75/65 71/78/71
f 61/71/61 60/70/60 66/80/66 67/81/67
f 62/72/62 61/71/61 67/81/67 68/82/68
f 63/73/63 62/72/62 68/82/68 69/83/69
f 64/74/64 63/73/63 69/83/69 70/77/70
f 67/81/67 66/80/66 72/84/72 73/85/73
f 68/82/68 67/81/67 73/85/73 74/86/74
f 69/83/69 68/82/68 74/86/74 75/87/75
f 70/77/70 69/83/69 75/87/75 76/88/76
f 71/78/71 70/77/70 76/88/76 77/89/77
f 5/90/5 71/78/71 77/89/77
f 77/91/77 76/92/76 82/93/82 83/94/83
f 5/95/5 77/91/77 83/94/83
f 73/96/73 72/97/72 78/98/78 79/99/79
f 74/100/74 73/96/73 79/99/79 80/101/80
f 75/102/75 74/100/74 80/101/80 81/103/81
f 76/92/76 75/102/75 81/103/81 82/93/82
f 80/101/80 79/99/79 85/104/85 86/105/86
f 81/103/81 80/101/80 86/105/86 87/106/87
f 82/93/82 81/103/81 87/106/87 88/107/88
f 83/94/83 82/93/82 88/107/88 89/108/89
f 5/109/5 83/94/83 89/108/89
f 79/99/79 78/98/78 84/110/84 85/104/85
f 5/111/5 89/108/89 95/112/95
f 85/104/85 84/110/84 90/113/90 91/114/91
f 86/105/86 85/104/85 91/114/91 92/115/92
f 87/106/87 86/105/86 92/115/92 93/116/93
f 88/107/88 87/106/87 93/116/93 94/117/94
f 89/108/89 88/107/88 94/117/94 95/112/95
f 92/115/92 91/114/91 1/1/1 97/5/97
f 93/116/93 92/115/92 97/5/97 2/7/2
f 94/117/94 93/116/93 2/7/2 3/9/3
f 95/112/95 94/117/94 3/9/3 4/11/4
f 5/118/5 95/112/95 4/11/4
f 91/114/91 90/113/90 96/2/96 1/1/1
f 6/3/6 96/2/96 90/113/90 84/110/84 78/98/78 72/84/72 66/80/66 60/70/60 54/67/54 48/56/48 42/54/42 36/42/36 30/40/30 24/30/24 18/27/18 12/16/12
