# Blender 5.2.2 LTS
# www.blender.org
mtllib Ring.mtl
o Ring
v 0.000000 0.245814 -1.765413
v 0.000000 -0.245814 -1.765413
v 0.675595 0.245814 -1.631029
v 0.675595 -0.245814 -1.631029
v 1.248336 0.245814 -1.248336
v 1.248336 -0.245814 -1.248336
v 1.631029 0.245814 -0.675594
v 1.631029 -0.245814 -0.675594
v 1.765413 0.245814 0.000000
v 1.765413 -0.245814 0.000000
v 1.631029 0.245814 0.675595
v 1.631029 -0.245814 0.675595
v 1.248335 0.245814 1.248336
v 1.248335 -0.245814 1.248336
v 0.675594 0.245814 1.631029
v 0.675594 -0.245814 1.631029
v -0.000000 0.245814 1.765413
v -0.000000 -0.245814 1.765413
v -0.675595 0.245814 1.631029
v -0.675595 -0.245814 1.631029
v -1.248336 0.245814 1.248335
v -1.248336 -0.245814 1.248335
v -1.631029 0.245814 0.675594
v -1.631029 -0.245814 0.675594
v -1.765413 0.245814 -0.000001
v -1.765413 -0.245814 -0.000001
v -1.631029 0.245814 -0.675595
v -1.631029 -0.245814 -0.675595
v -1.248335 0.245814 -1.248336
v -1.248335 -0.245814 -1.248336
v -0.675593 0.245814 -1.631029
v -0.675593 -0.245814 -1.631029
vn -0.0000 -0.0000 -1.0000
vn 0.3827 -0.0000 -0.9239
vn 0.7071 -0.0000 -0.7071
vn 0.9239 -0.0000 -0.3827
vn 1.0000 -0.0000 -0.0000
vn 0.9239 -0.0000 0.3827
vn 0.7071 -0.0000 0.7071
vn 0.3827 -0.0000 0.9239
vn -0.0000 -0.0000 1.0000
vn -0.3827 -0.0000 0.9239
vn -0.7071 -0.0000 0.7071
vn -0.9239 -0.0000 0.3827
vn -1.0000 -0.0000 -0.0000
vn -0.9239 -0.0000 -0.3827
vn -0.7071 -0.0000 -0.7071
vn -0.3827 -0.0000 -0.9239
vt 1.000000 0.375000
vt 0.000000 0.375000
vt 0.000000 0.437500
vt 1.000000 0.437500
vt 0.000000 0.500000
vt 1.000000 0.500000
vt 0.000000 0.562500
vt 1.000000 0.562500
vt 0.000000 0.625000
vt 1.000000 0.625000
vt 0.000000 0.687500
vt 1.000000 0.687500
vt 0.000000 0.750000
vt 1.000000 0.750000
vt 0.000000 0.812500
vt 1.000000 0.812500
vt 0.000000 0.875000
vt 1.000000 0.875000
vt 0.000000 0.937500
vt 1.000000 0.937500
vt 0.000000 1.000000
vt 1.000000 1.000000
vt 0.000000 0.000000
vt 0.000000 0.062500
vt 1.000000 0.062500
vt 1.000000 -0.000000
vt 0.000000 0.125000
vt 1.000000 0.125000
vt 0.000000 0.187500
vt 1.000000 0.187500
vt 0.000000 0.250000
vt 1.000000 0.250000
vt 0.000000 0.312500
vt 1.000000 0.312500
s 1
f 6/1/3 5/2/3 7/3/4 8/4/4
f 8/4/4 7/3/4 9/5/5 10/6/5
f 10/6/5 9/5/5 11/7/6 12/8/6
f 12/8/6 11/7/6 13/9/7 14/10/7
f 14/10/7 13/9/7 15/11/8 16/12/8
f 16/12/8 15/11/8 17/13/9 18/14/9
f 18/14/9 17/13/9 19/15/10 20/16/10
f 20/16/10 19/15/10 21/17/11 22/18/11
f 22/18/11 21/17/11 23/19/12 24/20/12
f 24/20/12 23/19/12 25/21/13 26/22/13
f 25/23/13 27/24/14 28/25/14 26/26/13
f 28/25/14 27/24/14 29/27/15 30/28/15
f 29/27/15 31/29/16 32/30/16 30/28/15
f 32/30/16 31/29/16 1/31/1 2/32/1
f 2/32/1 1/31/1 3/33/2 4/34/2
f 3/33/2 5/2/3 6/1/3 4/34/2
