# Blender 5.2.2 LTS
# www.blender.org
mtllib Sphere.mtl
o Sphere
v 0.000000 1.800000 0.000000
v 0.000000 1.765413 -0.351163
v 0.000000 1.662983 -0.688830
v 0.000000 1.272792 -1.272792
v 0.000000 0.688830 -1.662983
v 0.000000 0.351163 -1.765413
v 0.134384 1.765413 -0.324432
v 0.263604 1.662983 -0.636396
v 0.382694 1.496645 -0.923904
v 0.487076 1.272792 -1.175907
v 0.572741 1.000026 -1.382720
v 0.636396 0.688830 -1.536396
v 0.675595 0.351163 -1.631029
v 0.688830 0.000000 -1.662983
v 0.248309 1.765413 -0.248309
v 0.487077 1.662983 -0.487076
v 0.707125 1.496645 -0.707125
v 0.900000 1.272792 -0.900000
v 1.058288 1.000026 -1.058288
v 1.175907 0.688830 -1.175907
v 1.248336 0.351163 -1.248336
v 1.272792 0.000000 -1.272792
v 0.324432 1.765413 -0.134384
v 0.636396 1.662983 -0.263604
v 0.923904 1.496645 -0.382693
v 1.175907 1.272792 -0.487076
v 1.382720 1.000026 -0.572741
v 1.536396 0.688830 -0.636396
v 1.631029 0.351163 -0.675594
v 1.662983 0.000000 -0.688830
v 0.351162 1.765413 0.000000
v 0.688830 1.662983 0.000000
v 1.000026 1.496645 0.000000
v 1.272792 1.272792 0.000000
v 1.496645 1.000026 0.000000
v 1.662983 0.688830 0.000000
v 1.765413 0.351163 0.000000
v 1.800000 0.000000 0.000000
v 0.324432 1.765413 0.134384
v 0.636396 1.662983 0.263604
v 0.923904 1.496645 0.382694
v 1.175906 1.272792 0.487077
v 1.382720 1.000026 0.572741
v 1.536396 0.688830 0.636396
v 1.631029 0.351163 0.675595
v 1.662983 0.000000 0.688830
v 0.248309 1.765413 0.248309
v 0.487076 1.662983 0.487077
v 0.707125 1.496645 0.707126
v 0.900000 1.272792 0.900000
v 1.058288 1.000026 1.058288
v 1.175906 0.688830 1.175907
v 1.248335 0.351163 1.248336
v 1.272792 0.000000 1.272792
v 0.134384 1.765413 0.324432
v 0.263604 1.662983 0.636396
v 0.382693 1.496645 0.923904
v 0.487076 1.272792 1.175907
v 0.572741 1.000026 1.382720
v 0.636396 0.688830 1.536396
v 0.675594 0.351163 1.631029
v 0.688830 0.000000 1.662983
v -0.000000 1.765413 0.351162
v -0.000000 1.662983 0.688830
v -0.000000 1.496645 1.000026
v -0.000000 1.272792 1.272792
v -0.000000 1.000026 1.496645
v -0.000000 0.688830 1.662983
v -0.000000 0.351163 1.765413
v -0.000001 0.000000 1.800000
v -0.134384 1.765413 0.324432
v -0.263604 1.662983 0.636396
v -0.382694 1.496645 0.923904
v -0.487077 1.272792 1.175906
v -0.572742 1.000026 1.382720
v -0.636396 0.688830 1.536396
v -0.675595 0.351163 1.631029
v -0.688831 0.000000 1.662983
v -0.248309 1.765413 0.248309
v -0.487077 1.662983 0.487076
v -0.707126 1.496645 0.707125
v -0.900000 1.272792 0.899999
v -1.058288 1.000026 1.058288
v -1.175907 0.688830 1.175906
v -1.248336 0.351163 1.248335
v -1.272793 0.000000 1.272792
v -0.324432 1.765413 0.134384
v -0.636396 1.662983 0.263604
v -0.923904 1.496645 0.382693
v -1.175907 1.272792 0.487076
v -1.382720 1.000026 0.572741
v -1.536396 0.688830 0.636396
v -1.631029 0.351163 0.675594
v -1.662983 0.000000 0.688829
v -0.351162 1.765413 -0.000000
v -0.688830 1.662983 -0.000000
v -1.000026 1.496645 -0.000000
v -1.272792 1.272792 -0.000001
v -1.496645 1.000026 -0.000001
v -1.662983 0.688830 -0.000001
v -1.765413 0.351163 -0.000001
v -1.800000 0.000000 -0.000001
v -0.324432 1.765413 -0.134384
v -0.636396 1.662983 -0.263604
v -0.923904 1.496645 -0.382694
v -1.175906 1.272792 -0.487077
v -1.382720 1.000026 -0.572742
v -1.536396 0.688830 -0.636397
v -1.631029 0.351163 -0.675595
v -1.662983 0.000000 -0.688831
v -0.248309 1.765413 -0.248309
v -0.487076 1.662983 -0.487077
v -0.707125 1.496645 -0.707126
v -0.899999 1.272792 -0.900000
v -1.058287 1.000026 -1.058288
v -1.175906 0.688830 -1.175907
v -1.248335 0.351163 -1.248336
v -1.272791 0.000000 -1.272793
v -0.134384 1.765413 -0.324432
v -0.263604 1.662983 -0.636396
v -0.382693 1.496645 -0.923904
v -0.487076 1.272792 -1.175907
v -0.572741 1.000026 -1.382720
v -0.636395 0.688830 -1.536396
v -0.675593 0.351163 -1.631029
v -0.688829 0.000000 -1.662984
v 0.000000 1.496645 -1.000026
v 0.000001 1.000026 -1.496645
v 0.000001 0.000000 -1.800000
vn -0.0000 1.0000 -0.0000
vn -0.0000 0.9784 -0.2068
vn -0.0000 0.9195 -0.3930
vn -0.0000 0.7011 -0.7131
vn -0.0000 0.3784 -0.9256
vn -0.0000 0.1928 -0.9812
vn 0.0791 0.9784 -0.1911
vn 0.1504 0.9195 -0.3631
vn 0.2158 0.8258 -0.5210
vn 0.2729 0.7011 -0.6588
vn 0.3196 0.5500 -0.7716
vn 0.3542 0.3784 -0.8552
vn 0.3755 0.1928 -0.9065
vn 0.3808 0.0980 -0.9194
vn 0.1462 0.9784 -0.1462
vn 0.2779 0.9195 -0.2779
vn 0.3987 0.8258 -0.3987
vn 0.5042 0.7011 -0.5042
vn 0.5905 0.5500 -0.5905
vn 0.6545 0.3784 -0.6545
vn 0.6938 0.1928 -0.6938
vn 0.7037 0.0980 -0.7037
vn 0.1911 0.9784 -0.0791
vn 0.3631 0.9195 -0.1504
vn 0.5210 0.8258 -0.2158
vn 0.6588 0.7011 -0.2729
vn 0.7716 0.5500 -0.3196
vn 0.8552 0.3784 -0.3542
vn 0.9065 0.1928 -0.3755
vn 0.9194 0.0980 -0.3808
vn 0.2068 0.9784 -0.0000
vn 0.3930 0.9195 -0.0000
vn 0.5639 0.8258 -0.0000
vn 0.7131 0.7011 -0.0000
vn 0.8352 0.5500 -0.0000
vn 0.9256 0.3784 -0.0000
vn 0.9812 0.1928 -0.0000
vn 0.9952 0.0980 -0.0000
vn 0.1911 0.9784 0.0791
vn 0.3631 0.9195 0.1504
vn 0.5210 0.8258 0.2158
vn 0.6588 0.7011 0.2729
vn 0.7716 0.5500 0.3196
vn 0.8552 0.3784 0.3542
vn 0.9065 0.1928 0.3755
vn 0.9194 0.0980 0.3808
vn 0.1462 0.9784 0.1462
vn 0.2779 0.9195 0.2779
vn 0.3987 0.8258 0.3987
vn 0.5042 0.7011 0.5042
vn 0.5905 0.5500 0.5905
vn 0.6545 0.3784 0.6545
vn 0.6938 0.1928 0.6938
vn 0.7037 0.0980 0.7037
vn 0.0791 0.9784 0.1911
vn 0.1504 0.9195 0.3631
vn 0.2158 0.8258 0.5210
vn 0.2729 0.7011 0.6588
vn 0.3196 0.5500 0.7716
vn 0.3542 0.3784 0.8552
vn 0.3755 0.1928 0.9065
vn 0.3808 0.0980 0.9194
vn -0.0000 0.9784 0.2068
vn -0.0000 0.9195 0.3930
vn -0.0000 0.8258 0.5639
vn -0.0000 0.7011 0.7131
vn -0.0000 0.5500 0.8352
vn -0.0000 0.3784 0.9256
vn -0.0000 0.1928 0.9812
vn -0.0000 0.0980 0.9952
vn -0.0791 0.9784 0.1911
vn -0.1504 0.9195 0.3631
vn -0.2158 0.8258 0.5210
vn -0.2729 0.7011 0.6588
vn -0.3196 0.5500 0.7716
vn -0.3542 0.3784 0.8552
vn -0.3755 0.1928 0.9065
vn -0.3808 0.0980 0.9194
vn -0.1462 0.9784 0.1462
vn -0.2779 0.9195 0.2779
vn -0.3987 0.8258 0.3987
vn -0.5042 0.7011 0.5042
vn -0.5905 0.5500 0.5905
vn -0.6545 0.3784 0.6545
vn -0.6938 0.1928 0.6938
vn -0.7037 0.0980 0.7037
vn -0.1911 0.9784 0.0791
vn -0.3631 0.9195 0.1504
vn -0.5210 0.8258 0.2158
vn -0.6588 0.7011 0.2729
vn -0.7716 0.5500 0.3196
vn -0.8552 0.3784 0.3542
vn -0.9065 0.1928 0.3755
vn -0.9194 0.0980 0.3808
vn -0.2068 0.9784 -0.0000
vn -0.3930 0.9195 -0.0000
vn -0.5639 0.8258 -0.0000
vn -0.7131 0.7011 -0.0000
vn -0.8352 0.5500 -0.0000
vn -0.9256 0.3784 -0.0000
vn -0.9812 0.1928 -0.0000
vn -0.9952 0.0980 -0.0000
vn -0.1911 0.9784 -0.0791
vn -0.3631 0.9195 -0.1504
vn -0.5210 0.8258 -0.2158
vn -0.6588 0.7011 -0.2729
vn -0.7716 0.5500 -0.3196
vn -0.8552 0.3784 -0.3542
vn -0.9065 0.1928 -0.3755
vn -0.9194 0.0980 -0.3808
vn -0.1462 0.9784 -0.1462
vn -0.2779 0.9195 -0.2779
vn -0.3987 0.8258 -0.3987
vn -0.5042 0.7011 -0.5042
vn -0.5905 0.5500 -0.5905
vn -0.6545 0.3784 -0.6545
vn -0.6938 0.1928 -0.6938
vn -0.7037 0.0980 -0.7037
vn -0.0791 0.9784 -0.1911
vn -0.1504 0.9195 -0.3631
vn -0.2158 0.8258 -0.5210
vn -0.2729 0.7011 -0.6588
vn -0.3196 0.5500 -0.7716
vn -0.3542 0.3784 -0.8552
vn -0.3755 0.1928 -0.9065
vn -0.3808 0.0980 -0.9194
vn -0.0000 0.8258 -0.5639
vn -0.0000 0.5500 -0.8352
vn -0.0000 0.0980 -0.9952
vt 0.750000 0.746655
vt 0.750000 0.871097
vt 0.687500 0.871097
vt 0.687500 0.746655
vt 0.750000 0.622212
vt 0.687500 0.622212
vt 0.750000 0.497770
vt 0.687500 0.497770
vt 0.750000 0.373327
vt 0.687500 0.373327
vt 0.750000 0.248885
vt 0.687500 0.248885
vt 0.750000 0.124442
vt 0.687500 0.124442
vt 0.750000 0.000000
vt 0.687500 0.000000
vt 0.718750 1.000000
vt 0.656250 1.000000
vt 0.625000 0.871097
vt 0.625000 0.746655
vt 0.625000 0.622212
vt 0.625000 0.497770
vt 0.625000 0.373327
vt 0.625000 0.248885
vt 0.625000 0.124442
vt 0.625000 0.000000
vt 0.562500 0.497770
vt 0.562500 0.373327
vt 0.562500 0.248885
vt 0.562500 0.124442
vt 0.562500 0.000000
vt 0.593750 1.000000
vt 0.562500 0.871097
vt 0.562500 0.746655
vt 0.562500 0.622212
vt 0.500000 0.871097
vt 0.500000 0.746655
vt 0.500000 0.622212
vt 0.500000 0.497770
vt 0.500000 0.373327
vt 0.500000 0.248885
vt 0.500000 0.124442
vt 0.500000 0.000000
vt 0.531250 1.000000
vt 0.437500 0.373327
vt 0.437500 0.248885
vt 0.437500 0.124442
vt 0.437500 0.000000
vt 0.468750 1.000000
vt 0.437500 0.871097
vt 0.437500 0.746655
vt 0.437500 0.622212
vt 0.437500 0.497770
vt 0.375000 0.871097
vt 0.375000 0.746655
vt 0.375000 0.622212
vt 0.375000 0.497770
vt 0.375000 0.373327
vt 0.375000 0.248885
vt 0.375000 0.124442
vt 0.375000 0.000000
vt 0.406250 1.000000
vt 0.312500 0.373327
vt 0.312500 0.248885
vt 0.312500 0.124442
vt 0.312500 0.000000
vt 0.343750 1.000000
vt 0.312500 0.871097
vt 0.312500 0.746655
vt 0.312500 0.622212
vt 0.312500 0.497770
vt 0.250000 0.746655
vt 0.250000 0.622212
vt 0.250000 0.497770
vt 0.250000 0.373327
vt 0.250000 0.248885
vt 0.250000 0.124442
vt 0.250000 0.000000
vt 0.281250 1.000000
vt 0.250000 0.871097
vt 0.187500 0.248885
vt 0.187500 0.124442
vt 0.187500 0.000000
vt 0.218750 1.000000
vt 0.187500 0.871097
vt 0.187500 0.746655
vt 0.187500 0.622212
vt 0.187500 0.497770
vt 0.187500 0.373327
vt 0.125000 0.622212
vt 0.125000 0.497770
vt 0.125000 0.373327
vt 0.125000 0.248885
vt 0.125000 0.124442
vt 0.125000 0.000000
vt 0.156250 1.000000
vt 0.125000 0.871097
vt 0.125000 0.746655
vt 0.062500 0.124442
vt 0.062500 0.000000
vt 0.093750 1.000000
vt 0.062500 0.871097
vt 0.062500 0.746655
vt 0.062500 0.622212
vt 0.062500 0.497770
vt 0.062500 0.373327
vt 0.062500 0.248885
vt 0.000000 0.622212
vt 0.000000 0.497770
vt 0.000000 0.373327
vt 0.000000 0.248885
vt 0.000000 0.124442
vt 0.000000 0.000000
vt 0.031250 1.000000
vt 0.000000 0.871097
vt 0.000000 0.746655
vt 1.000000 0.000000
vt 1.000000 0.124442
vt 0.937500 0.124442
vt 0.937500 0.000000
vt 1.000000 0.871097
vt 0.968750 1.000000
vt 0.937500 0.871097
vt 1.000000 0.746655
vt 0.937500 0.746655
vt 1.000000 0.622212
vt 0.937500 0.622212
vt 1.000000 0.497770
vt 0.937500 0.497770
vt 1.000000 0.373327
vt 0.937500 0.373327
vt 1.000000 0.248885
vt 0.937500 0.248885
vt 0.875000 0.497770
vt 0.875000 0.373327
vt 0.875000 0.248885
vt 0.875000 0.124442
vt 0.875000 0.000000
vt 0.906250 1.000000
vt 0.875000 0.871097
vt 0.875000 0.746655
vt 0.875000 0.622212
vt 0.843750 1.000000
vt 0.812500 0.871097
vt 0.812500 0.746655
vt 0.812500 0.622212
vt 0.812500 0.497770
vt 0.812500 0.373327
vt 0.812500 0.248885
vt 0.812500 0.124442
vt 0.812500 0.000000
vt 0.781250 1.000000
s 1
f 3/1/3 2/2/2 7/3/7 8/4/8
f 127/5/127 3/1/3 8/4/8 9/6/9
f 4/7/4 127/5/127 9/6/9 10/8/10
f 128/9/128 4/7/4 10/8/10 11/10/11
f 5/11/5 128/9/128 11/10/11 12/12/12
f 6/13/6 5/11/5 12/12/12 13/14/13
f 129/15/129 6/13/6 13/14/13 14/16/14
f 2/2/2 1/17/1 7/3/7
f 7/3/7 1/18/1 15/19/15
f 8/4/8 7/3/7 15/19/15 16/20/16
f 9/6/9 8/4/8 16/20/16 17/21/17
f 10/8/10 9/6/9 17/21/17 18/22/18
f 11/10/11 10/8/10 18/22/18 19/23/19
f 12/12/12 11/10/11 19/23/19 20/24/20
f 13/14/13 12/12/12 20/24/20 21/25/21
f 14/16/14 13/14/13 21/25/21 22/26/22
f 19/23/19 18/22/18 26/27/26 27/28/27
f 20/24/20 19/23/19 27/28/27 28/29/28
f 21/25/21 20/24/20 28/29/28 29/30/29
f 22/26/22 21/25/21 29/30/29 30/31/30
f 15/19/15 1/32/1 23/33/23
f 16/20/16 15/19/15 23/33/23 24/34/24
f 17/21/17 16/20/16 24/34/24 25/35/25
f 18/22/18 17/21/17 25/35/25 26/27/26
f 24/34/24 23/33/23 31/36/31 32/37/32
f 25/35/25 24/34/24 32/37/32 33/38/33
f 26/27/26 25/35/25 33/38/33 34/39/34
f 27/28/27 26/27/26 34/39/34 35/40/35
f 28/29/28 27/28/27 35/40/35 36/41/36
f 29/30/29 28/29/28 36/41/36 37/42/37
f 30/31/30 29/30/29 37/42/37 38/43/38
f 23/33/23 1/44/1 31/36/31
f 36/41/36 35/40/35 43/45/43 44/46/44
f 37/42/37 36/41/36 44/46/44 45/47/45
f 38/43/38 37/42/37 45/47/45 46/48/46
f 31/36/31 1/49/1 39/50/39
f 32/37/32 31/36/31 39/50/39 40/51/40
f 33/38/33 32/37/32 40/51/40 41/52/41
f 34/39/34 33/38/33 41/52/41 42/53/42
f 35/40/35 34/39/34 42/53/42 43/45/43
f 40/51/40 39/50/39 47/54/47 48/55/48
f 41/52/41 40/51/40 48/55/48 49/56/49
f 42/53/42 41/52/41 49/56/49 50/57/50
f 43/45/43 42/53/42 50/57/50 51/58/51
f 44/46/44 43/45/43 51/58/51 52/59/52
f 45/47/45 44/46/44 52/59/52 53/60/53
f 46/48/46 45/47/45 53/60/53 54/61/54
f 39/50/39 1/62/1 47/54/47
f 52/59/52 51/58/51 59/63/59 60/64/60
f 53/60/53 52/59/52 60/64/60 61/65/61
f 54/61/54 53/60/53 61/65/61 62/66/62
f 47/54/47 1/67/1 55/68/55
f 48/55/48 47/54/47 55/68/55 56/69/56
f 49/56/49 48/55/48 56/69/56 57/70/57
f 50/57/50 49/56/49 57/70/57 58/71/58
f 51/58/51 50/57/50 58/71/58 59/63/59
f 57/70/57 56/69/56 64/72/64 65/73/65
f 58/71/58 57/70/57 65/73/65 66/74/66
f 59/63/59 58/71/58 66/74/66 67/75/67
f 60/64/60 59/63/59 67/75/67 68/76/68
f 61/65/61 60/64/60 68/76/68 69/77/69
f 62/66/62 61/65/61 69/77/69 70/78/70
f 55/68/55 1/79/1 63/80/63
f 56/69/56 55/68/55 63/80/63 64/72/64
f 69/77/69 68/76/68 76/81/76 77/82/77
f 70/78/70 69/77/69 77/82/77 78/83/78
f 63/80/63 1/84/1 71/85/71
f 64/72/64 63/80/63 71/85/71 72/86/72
f 65/73/65 64/72/64 72/86/72 73/87/73
f 66/74/66 65/73/65 73/87/73 74/88/74
f 67/75/67 66/74/66 74/88/74 75/89/75
f 68/76/68 67/75/67 75/89/75 76/81/76
f 74/88/74 73/87/73 81/90/81 82/91/82
f 75/89/75 74/88/74 82/91/82 83/92/83
f 76/81/76 75/89/75 83/92/83 84/93/84
f 77/82/77 76/81/76 84/93/84 85/94/85
f 78/83/78 77/82/77 85/94/85 86/95/86
f 71/85/71 1/96/1 79/97/79
f 72/86/72 71/85/71 79/97/79 80/98/80
f 73/87/73 72/86/72 80/98/80 81/90/81
f 86/95/86 85/94/85 93/99/93 94/100/94
f 79/97/79 1/101/1 87/102/87
f 80/98/80 79/97/79 87/102/87 88/103/88
f 81/90/81 80/98/80 88/103/88 89/104/89
f 82/91/82 81/90/81 89/104/89 90/105/90
f 83/92/83 82/91/82 90/105/90 91/106/91
f 84/93/84 83/92/83 91/106/91 92/107/92
f 85/94/85 84/93/84 92/107/92 93/99/93
f 90/105/90 89/104/89 97/108/97 98/109/98
f 91/106/91 90/105/90 98/109/98 99/110/99
f 92/107/92 91/106/91 99/110/99 100/111/100
f 93/99/93 92/107/92 100/111/100 101/112/101
f 94/100/94 93/99/93 101/112/101 102/113/102
f 87/102/87 1/114/1 95/115/95
f 88/103/88 87/102/87 95/115/95 96/116/96
f 89/104/89 88/103/88 96/116/96 97/108/97
f 102/117/102 101/118/101 109/119/109 110/120/110
f 95/121/95 1/122/1 103/123/103
f 96/124/96 95/121/95 103/123/103 104/125/104
f 97/126/97 96/124/96 104/125/104 105/127/105
f 98/128/98 97/126/97 105/127/105 106/129/106
f 99/130/99 98/128/98 106/129/106 107/131/107
f 100/132/100 99/130/99 107/131/107 108/133/108
f 101/118/101 100/132/100 108/133/108 109/119/109
f 107/131/107 106/129/106 114/134/114 115/135/115
f 108/133/108 107/131/107 115/135/115 116/136/116
f 109/119/109 108/133/108 116/136/116 117/137/117
f 110/120/110 109/119/109 117/137/117 118/138/118
f 103/123/103 1/139/1 111/140/111
f 104/125/104 103/123/103 111/140/111 112/141/112
f 105/127/105 104/125/104 112/141/112 113/142/113
f 106/129/106 105/127/105 113/142/113 114/134/114
f 111/140/111 1/143/1 119/144/119
f 112/141/112 111/140/111 119/144/119 120/145/120
f 113/142/113 112/141/112 120/145/120 121/146/121
f 114/134/114 113/142/113 121/146/121 122/147/122
f 115/135/115 114/134/114 122/147/122 123/148/123
f 116/136/116 115/135/115 123/148/123 124/149/124
f 117/137/117 116/136/116 124/149/124 125/150/125
f 118/138/118 117/137/117 125/150/125 126/151/126
f 123/148/123 122/147/122 4/7/4 128/9/128
f 124/149/124 123/148/123 128/9/128 5/11/5
f 125/150/125 124/149/124 5/11/5 6/13/6
f 126/151/126 125/150/125 6/13/6 129/15/129
f 119/144/119 1/152/1 2/2/2
f 120/145/120 119/144/119 2/2/2 3/1/3
f 121/146/121 120/145/120 3/1/3 127/5/127
f 122/147/122 121/146/121 127/5/127 4/7/4
